HIERARCHY
ROOT Hips
{
	OFFSET 0.000000 97.167313 0.000000
	CHANNELS 6 Xposition Yposition Zposition Xrotation Yrotation Zrotation
	JOINT Spine
	{
		OFFSET 0.000000 13.784798 0.064400
		CHANNELS 3 Xrotation Yrotation Zrotation
		JOINT Spine1
		{
			OFFSET 0.000000 12.037903 0.404700
			CHANNELS 3 Xrotation Yrotation Zrotation
			JOINT Spine2
			{
				OFFSET 0.000000 17.795601 0.420200
				CHANNELS 3 Xrotation Yrotation Zrotation
				JOINT Neck
				{
					OFFSET 0.000000 39.131302 11.954600
					CHANNELS 3 Xrotation Yrotation Zrotation
					JOINT Head
					{
						OFFSET 0.000000 14.456192 15.627699
						CHANNELS 3 Xrotation Yrotation Zrotation
						JOINT HeadTop_End
						{
							OFFSET 0.000000 15.703506 7.603401
							CHANNELS 3 Xrotation Yrotation Zrotation
							End Site
							{
								OFFSET 0.000000 17.447403 0.000000
							}
						}
					}
				}
				JOINT LeftShoulder
				{
					OFFSET 17.399500 24.608795 1.168800
					CHANNELS 3 Xrotation Yrotation Zrotation
					JOINT LeftArm
					{
						OFFSET 18.980635 5.765305 1.818600
						CHANNELS 3 Xrotation Yrotation Zrotation
						JOINT LeftForeArm
						{
							OFFSET 49.290169 0.000000 0.000000
							CHANNELS 3 Xrotation Yrotation Zrotation
							JOINT LeftHand
							{
								OFFSET 31.562012 0.000000 0.000000
								CHANNELS 3 Xrotation Yrotation Zrotation
								JOINT LeftHandThumb1
								{
									OFFSET 6.133995 -4.388519 7.076070
									CHANNELS 3 Xrotation Yrotation Zrotation
									JOINT LeftHandThumb2
									{
										OFFSET 6.037666 -3.485840 3.485847
										CHANNELS 3 Xrotation Yrotation Zrotation
										JOINT LeftHandThumb3
										{
											OFFSET 6.496506 -3.750763 3.750761
											CHANNELS 3 Xrotation Yrotation Zrotation
											JOINT LeftHandThumb4
											{
												OFFSET 5.616882 -3.242905 3.242910
												CHANNELS 3 Xrotation Yrotation Zrotation
												End Site
												{
													OFFSET -1.254608 7.132141 0.375429
												}
											}
										}
									}
								}
								JOINT LeftHandPinky1
								{
									OFFSET 18.920792 -0.453171 -11.426712
									CHANNELS 3 Xrotation Yrotation Zrotation
									JOINT LeftHandPinky2
									{
										OFFSET 4.919586 0.000000 0.000000
										CHANNELS 3 Xrotation Yrotation Zrotation
										JOINT LeftHandPinky3
										{
											OFFSET 5.233047 0.000000 0.000000
											CHANNELS 3 Xrotation Yrotation Zrotation
											JOINT LeftHandPinky4
											{
												OFFSET 5.571716 0.000000 0.000000
												CHANNELS 3 Xrotation Yrotation Zrotation
												End Site
												{
													OFFSET -3.459808 4.342407 -0.466164
												}
											}
										}
									}
								}
								JOINT LeftHandRing1
								{
									OFFSET 22.726120 -0.094986 -6.500475
									CHANNELS 3 Xrotation Yrotation Zrotation
									JOINT LeftHandRing2
									{
										OFFSET 6.408615 0.000000 0.000000
										CHANNELS 3 Xrotation Yrotation Zrotation
										JOINT LeftHandRing3
										{
											OFFSET 6.150223 0.000000 0.000000
											CHANNELS 3 Xrotation Yrotation Zrotation
											JOINT LeftHandRing4
											{
												OFFSET 6.145386 0.000000 0.000000
												CHANNELS 3 Xrotation Yrotation Zrotation
												End Site
												{
													OFFSET -3.671402 4.923981 -0.202372
												}
											}
										}
									}
								}
								JOINT LeftHandMiddle1
								{
									OFFSET 23.373947 0.000000 0.000001
									CHANNELS 3 Xrotation Yrotation Zrotation
									JOINT LeftHandMiddle2
									{
										OFFSET 6.996567 0.000000 0.000000
										CHANNELS 3 Xrotation Yrotation Zrotation
										JOINT LeftHandMiddle3
										{
											OFFSET 7.015945 0.000000 0.000000
											CHANNELS 3 Xrotation Yrotation Zrotation
											JOINT LeftHandMiddle4
											{
												OFFSET 7.721573 0.000000 0.000000
												CHANNELS 3 Xrotation Yrotation Zrotation
												End Site
												{
													OFFSET -4.651108 6.158463 0.251582
												}
											}
										}
									}
								}
								JOINT LeftHandIndex1
								{
									OFFSET 21.310577 -0.490082 6.209344
									CHANNELS 3 Xrotation Yrotation Zrotation
									JOINT LeftHandIndex2
									{
										OFFSET 7.536453 0.000000 0.000000
										CHANNELS 3 Xrotation Yrotation Zrotation
										JOINT LeftHandIndex3
										{
											OFFSET 7.512344 0.000000 0.000000
											CHANNELS 3 Xrotation Yrotation Zrotation
											JOINT LeftHandIndex4
											{
												OFFSET 10.212402 0.000000 0.000001
												CHANNELS 3 Xrotation Yrotation Zrotation
												End Site
												{
													OFFSET -5.180801 8.690506 1.388433
												}
											}
										}
									}
								}
							}
						}
					}
				}
				JOINT RightShoulder
				{
					OFFSET -17.399500 24.608795 1.168800
					CHANNELS 3 Xrotation Yrotation Zrotation
					JOINT RightArm
					{
						OFFSET -18.980635 5.765305 1.818600
						CHANNELS 3 Xrotation Yrotation Zrotation
						JOINT RightForeArm
						{
							OFFSET -49.290169 0.000000 0.000000
							CHANNELS 3 Xrotation Yrotation Zrotation
							JOINT RightHand
							{
								OFFSET -31.562012 0.000000 0.000000
								CHANNELS 3 Xrotation Yrotation Zrotation
								JOINT RightHandThumb1
								{
									OFFSET -6.133995 -4.388519 7.076070
									CHANNELS 3 Xrotation Yrotation Zrotation
									JOINT RightHandThumb2
									{
										OFFSET -6.037666 -3.485840 3.485847
										CHANNELS 3 Xrotation Yrotation Zrotation
										JOINT RightHandThumb3
										{
											OFFSET -6.496506 -3.750763 3.750761
											CHANNELS 3 Xrotation Yrotation Zrotation
											JOINT RightHandThumb4
											{
												OFFSET -5.616882 -3.242905 3.242910
												CHANNELS 3 Xrotation Yrotation Zrotation
												End Site
												{
													OFFSET 1.254608 7.132141 0.375429
												}
											}
										}
									}
								}
								JOINT RightHandIndex1
								{
									OFFSET -21.310577 -0.490082 6.209344
									CHANNELS 3 Xrotation Yrotation Zrotation
									JOINT RightHandIndex2
									{
										OFFSET -7.536453 0.000000 0.000000
										CHANNELS 3 Xrotation Yrotation Zrotation
										JOINT RightHandIndex3
										{
											OFFSET -7.512344 0.000000 0.000000
											CHANNELS 3 Xrotation Yrotation Zrotation
											JOINT RightHandIndex4
											{
												OFFSET -10.212402 0.000000 0.000001
												CHANNELS 3 Xrotation Yrotation Zrotation
												End Site
												{
													OFFSET 5.180801 8.690506 1.388433
												}
											}
										}
									}
								}
								JOINT RightHandMiddle1
								{
									OFFSET -23.373947 0.000000 0.000001
									CHANNELS 3 Xrotation Yrotation Zrotation
									JOINT RightHandMiddle2
									{
										OFFSET -6.996567 0.000000 0.000000
										CHANNELS 3 Xrotation Yrotation Zrotation
										JOINT RightHandMiddle3
										{
											OFFSET -7.015945 0.000000 0.000000
											CHANNELS 3 Xrotation Yrotation Zrotation
											JOINT RightHandMiddle4
											{
												OFFSET -7.721573 0.000000 0.000000
												CHANNELS 3 Xrotation Yrotation Zrotation
												End Site
												{
													OFFSET 4.651108 6.158463 0.251582
												}
											}
										}
									}
								}
								JOINT RightHandRing1
								{
									OFFSET -22.726120 -0.094986 -6.500475
									CHANNELS 3 Xrotation Yrotation Zrotation
									JOINT RightHandRing2
									{
										OFFSET -6.408615 0.000000 0.000000
										CHANNELS 3 Xrotation Yrotation Zrotation
										JOINT RightHandRing3
										{
											OFFSET -6.150223 0.000000 0.000000
											CHANNELS 3 Xrotation Yrotation Zrotation
											JOINT RightHandRing4
											{
												OFFSET -6.145386 0.000000 0.000000
												CHANNELS 3 Xrotation Yrotation Zrotation
												End Site
												{
													OFFSET 3.671402 4.923981 -0.202372
												}
											}
										}
									}
								}
								JOINT RightHandPinky1
								{
									OFFSET -18.920792 -0.453171 -11.426712
									CHANNELS 3 Xrotation Yrotation Zrotation
									JOINT RightHandPinky2
									{
										OFFSET -4.919586 0.000000 0.000000
										CHANNELS 3 Xrotation Yrotation Zrotation
										JOINT RightHandPinky3
										{
											OFFSET -5.233047 0.000000 0.000000
											CHANNELS 3 Xrotation Yrotation Zrotation
											JOINT RightHandPinky4
											{
												OFFSET -5.571716 0.000000 0.000000
												CHANNELS 3 Xrotation Yrotation Zrotation
												End Site
												{
													OFFSET 3.459808 4.342407 -0.466164
												}
											}
										}
									}
								}
							}
						}
					}
				}
			}
		}
	}
	JOINT LeftUpLeg
	{
		OFFSET 19.899099 -7.885101 -3.429500
		CHANNELS 3 Xrotation Yrotation Zrotation
		JOINT LeftLeg
		{
			OFFSET 1.745560 -36.997807 10.304700
			CHANNELS 3 Xrotation Yrotation Zrotation
			JOINT LeftFoot
			{
				OFFSET -1.745558 -29.803308 -13.615400
				CHANNELS 3 Xrotation Yrotation Zrotation
				JOINT LeftToeBase
				{
					OFFSET 1.181900 -18.539904 15.226099
					CHANNELS 3 Xrotation Yrotation Zrotation
					JOINT LeftToe_End
					{
						OFFSET -0.863701 1.402801 16.534700
						CHANNELS 3 Xrotation Yrotation Zrotation
						End Site
						{
							OFFSET 0.000000 16.616566 0.000000
						}
					}
				}
			}
		}
	}
	JOINT RightUpLeg
	{
		OFFSET -19.899099 -7.885101 -3.429500
		CHANNELS 3 Xrotation Yrotation Zrotation
		JOINT RightLeg
		{
			OFFSET -1.745560 -36.997807 10.304700
			CHANNELS 3 Xrotation Yrotation Zrotation
			JOINT RightFoot
			{
				OFFSET 1.745558 -29.803308 -13.615400
				CHANNELS 3 Xrotation Yrotation Zrotation
				JOINT RightToeBase
				{
					OFFSET -1.181900 -18.539904 15.226099
					CHANNELS 3 Xrotation Yrotation Zrotation
					JOINT RightToe_End
					{
						OFFSET 0.863701 1.402801 16.534700
						CHANNELS 3 Xrotation Yrotation Zrotation
						End Site
						{
							OFFSET 0.000000 16.616566 0.000000
						}
					}
				}
			}
		}
	}
}
MOTION
Frames: 4
Frame Time: 0.033333
-18.214252 72.961403 8.604264 8.609467 -29.885899 2.844382 19.781872 -2.766038 -3.920967 4.322168 -0.548368 -1.359774 4.365424 -0.606142 -1.234603 2.758552 1.412513 2.816681 -29.092754 25.302407 4.696728 0.000001 -0.000001 -0.000000 9.840350 -14.477824 -8.581885 -26.538989 9.293718 -48.564639 0.000391 -86.689840 0.000458 -135.355717 7.897602 19.047010 21.567173 -26.260834 20.227346 -18.755180 11.865937 -5.299195 -14.119971 -6.831863 8.163575 0.000001 -0.000000 -0.000002 -0.320955 7.476122 -82.836712 1.694148 4.121241 -44.678016 0.482460 2.330007 -23.394069 -0.000001 0.000001 0.000001 1.326529 7.085854 -73.221096 3.334048 5.283696 -64.482238 0.668061 2.718748 -27.606161 0.000003 0.000003 0.000002 2.802449 7.511211 -72.665536 3.021106 5.123233 -61.032795 0.541638 2.462189 -24.809762 0.000004 0.000001 0.000004 3.010885 7.587986 -73.213925 2.275898 4.634758 -52.287676 1.005024 3.282767 -34.036219 -0.000001 0.000000 -0.000004 -0.448898 19.854598 21.051989 -0.472935 36.078613 30.391319 0.000009 104.945365 0.000011 -30.939442 -31.468034 7.592850 52.323620 29.641915 -26.183155 42.378325 -24.929950 37.205157 11.676624 -37.605434 -15.022110 -0.000000 -0.000002 0.000001 -2.012463 2.205781 21.312794 2.896829 -4.312331 67.768966 3.328296 -4.463945 73.403551 -0.000001 -0.000003 -0.000001 13.456655 -8.790204 78.781881 5.608660 -4.559145 101.801429 4.771088 -4.655793 91.403285 -0.000003 0.000001 -0.000008 8.262330 -7.055150 88.116045 5.520488 -4.576613 100.694282 5.148822 -4.631194 96.066474 0.000002 -0.000002 -0.000003 4.707859 -6.937644 92.892048 2.523286 -4.140478 62.703636 1.707106 -3.605257 50.664383 -0.000001 -0.000001 0.000007 -25.396938 23.828694 22.568381 60.229291 -13.614106 4.437312 -44.662149 8.636031 -6.716836 0.007781 0.000041 -0.076021 -0.000000 -0.000000 0.000000 -51.711690 25.550874 -11.340549 41.026102 3.564913 -6.672553 -1.494706 4.245320 17.522639 -1.981787 0.000001 -0.000009 0.000000 -0.000000 0.000001 
-19.541397 72.299042 8.536180 8.547678 -29.317583 3.110482 19.722388 -3.135305 -3.942689 4.320109 -0.627696 -1.371262 4.363548 -0.685274 -1.237924 2.749259 1.420190 2.780888 -29.429117 25.434042 4.669850 0.000001 0.000000 -0.000000 9.825870 -14.667707 -8.794320 -26.440757 9.353268 -48.022561 0.000099 -86.982548 0.000098 -135.621302 7.755335 19.199978 21.673838 -26.266638 20.450140 -18.755180 11.865933 -5.299197 -14.119967 -6.831867 8.163569 -0.000001 0.000001 -0.000002 -0.327987 7.456101 -82.640440 1.694345 4.121469 -44.680973 0.481657 2.328156 -23.374383 0.000004 -0.000004 0.000000 1.320453 7.073349 -73.027010 3.334057 5.283698 -64.482231 0.667712 2.718093 -27.598754 -0.000002 -0.000001 0.000005 2.785395 7.500865 -72.473375 3.021099 5.123251 -61.032795 0.541638 2.462190 -24.809755 0.000003 -0.000002 0.000004 2.993204 7.578252 -73.022734 2.276354 4.635113 -52.293445 1.005584 3.283600 -34.046181 -0.000001 -0.000002 0.000001 -0.388866 19.824315 20.776384 -0.427866 36.250409 30.443963 -0.000030 105.038474 0.000043 -31.264248 -31.399633 7.137162 52.323620 29.641918 -26.183146 42.378325 -24.929951 37.205161 11.676628 -37.605430 -15.022098 -0.000001 -0.000001 -0.000001 -2.012461 2.205783 21.312794 2.896837 -4.312334 67.768973 3.328294 -4.463946 73.403551 -0.000000 -0.000001 -0.000001 13.456657 -8.790208 78.781881 5.608661 -4.559149 101.801429 4.771086 -4.655789 91.403279 0.000001 0.000000 -0.000009 8.262334 -7.055148 88.116045 5.520487 -4.576608 100.694282 5.148824 -4.631188 96.066474 -0.000002 -0.000000 -0.000003 4.707862 -6.937640 92.892048 2.523290 -4.140485 62.703636 1.707105 -3.605259 50.664373 -0.000000 -0.000001 0.000004 -25.405298 23.119072 23.754804 60.495341 -14.008554 4.434727 -44.692776 8.669992 -8.072200 0.008722 0.000037 -0.077736 0.000000 -0.000000 0.000000 -51.796996 25.814261 -11.893015 42.603028 5.189633 -6.751974 -2.180451 1.922378 20.620336 -1.897070 0.000000 -0.000002 0.000000 -0.000001 -0.000000 
-20.852152 71.674652 8.449928 8.499029 -28.740265 3.392529 19.662375 -3.515202 -3.963607 4.317879 -0.711401 -1.384984 4.361582 -0.767939 -1.245321 2.739007 1.428347 2.742841 -29.757519 25.546803 4.638083 -0.000001 -0.000000 -0.000000 9.826794 -14.649508 -8.727752 -26.431089 9.461293 -48.095057 -0.000246 -87.123140 -0.000270 -135.592000 7.809917 19.392878 21.639489 -26.304462 20.388395 -18.755182 11.865934 -5.299192 -14.119966 -6.831867 8.163570 -0.000000 0.000002 -0.000002 -0.323274 7.462972 -82.704923 1.694262 4.121374 -44.679713 0.481355 2.327460 -23.366933 0.000002 -0.000003 -0.000003 1.325526 7.078408 -73.091118 3.334057 5.283694 -64.482231 0.667648 2.717938 -27.597195 -0.000001 -0.000001 -0.000000 2.791249 7.504388 -72.537606 3.021119 5.123249 -61.032767 0.541634 2.462192 -24.809762 -0.000003 0.000003 0.000009 2.998584 7.581338 -73.086009 2.276542 4.635272 -52.295982 1.005808 3.283941 -34.049962 -0.000000 0.000001 0.000001 -0.317185 19.791810 20.463037 -0.393039 36.427844 30.494773 -0.000015 105.120429 0.000007 -31.605310 -31.299475 6.678579 52.323624 29.641918 -26.183151 42.378325 -24.929950 37.205157 11.676628 -37.605434 -15.022111 0.000001 0.000001 -0.000001 -2.012463 2.205788 21.312794 2.896839 -4.312333 67.768966 3.328297 -4.463951 73.403558 -0.000001 0.000000 0.000001 13.456658 -8.790204 78.781881 5.608661 -4.559145 101.801422 4.771087 -4.655790 91.403279 0.000001 0.000001 -0.000004 8.262330 -7.055143 88.116045 5.520485 -4.576609 100.694282 5.148819 -4.631191 96.066481 -0.000001 0.000001 -0.000001 4.707862 -6.937637 92.892048 2.523289 -4.140485 62.703636 1.707106 -3.605263 50.664383 -0.000000 0.000002 0.000001 -25.426300 22.409764 24.901907 60.619104 -14.382763 4.442751 -44.582014 8.704869 -9.454460 0.009656 0.000047 -0.079393 0.000000 -0.000000 0.000000 -51.875949 26.265373 -13.131570 44.133783 3.540716 -6.511909 -2.939894 2.671253 23.983231 -1.776538 -0.000003 0.000009 -0.000000 -0.000001 -0.000001 
-22.213650 71.045494 8.355966 8.464605 -28.149469 3.705085 19.601046 -3.918544 -3.994436 4.315554 -0.798977 -1.400313 4.359551 -0.853740 -1.254000 2.727822 1.436949 2.702852 -30.073439 25.639649 4.601313 -0.000001 -0.000000 -0.000000 9.819450 -14.743725 -8.854757 -26.511127 9.626031 -47.954676 -0.001078 -87.331946 -0.001017 -135.563477 7.851948 19.663099 21.580601 -26.203022 20.241023 -18.755179 11.865936 -5.299191 -14.119966 -6.831866 8.163569 -0.000001 0.000001 0.000000 -0.324878 7.473029 -82.809897 1.694070 4.121194 -44.677138 0.483189 2.331710 -23.412148 -0.000001 -0.000001 -0.000004 1.321861 7.082979 -73.194049 3.334053 5.283695 -64.482231 0.668309 2.719222 -27.611378 -0.000001 -0.000002 0.000003 2.800167 7.509785 -72.637668 3.021110 5.123243 -61.032801 0.541639 2.462192 -24.809762 -0.000002 0.000002 0.000007 3.007279 7.586295 -73.187062 2.275429 4.634405 -52.282151 1.004597 3.282117 -34.028501 0.000000 0.000003 -0.000003 -0.250815 19.757145 20.150434 -0.364311 36.590252 30.539125 -0.000000 105.197617 0.000040 -31.929020 -31.192572 6.254515 52.323620 29.641918 -26.183148 42.378325 -24.929951 37.205161 11.676624 -37.605434 -15.022106 0.000000 -0.000000 -0.000002 -2.012464 2.205785 21.312794 2.896837 -4.312331 67.768973 3.328294 -4.463945 73.403551 -0.000000 -0.000001 -0.000001 13.456655 -8.790204 78.781881 5.608660 -4.559145 101.801429 4.771089 -4.655785 91.403279 0.000002 0.000000 -0.000004 8.262331 -7.055141 88.116045 5.520485 -4.576609 100.694282 5.148823 -4.631193 96.066481 -0.000001 -0.000000 -0.000005 4.707861 -6.937637 92.892048 2.523285 -4.140481 62.703643 1.707107 -3.605264 50.664380 0.000002 -0.000000 0.000006 -25.430403 21.679762 26.064622 60.614261 -14.802261 4.430491 -44.369080 8.772151 -10.875411 0.010472 0.000045 -0.081004 0.000000 0.000000 0.000000 -52.116167 26.562244 -13.582428 46.171290 3.546068 -6.519302 -3.902111 1.577631 25.936858 -1.628451 -0.000002 -0.000005 0.000000 0.000001 0.000001 
